# xmcd
#
# Track frame offsets:
#	150
#	28528
#	50206
#	85181
#	128931
#	184926
#
# Disc length: 3287 seconds
#
# Revision: 2
# Processed by: cddbd v1.5.2PL0 Copyright (c) Steve Scherf et al.
# Submitted via: audiograbber 1.83.01
#
DISCID=4f0cd506
DTITLE=Grateful Dead - 95-03-17 The Spectrum, Philadelphia PA
DYEAR=1900
DGENRE=
TTITLE0=China Cat Sunflower
TTITLE1=I Know You Rider
TTITLE2=Samba In The Rain
TTITLE3=Truckin'
TTITLE4=New Speedway Boogie
TTITLE5=Drums
EXTD=
EXTT0=
EXTT1=
EXTT2=
EXTT3=
EXTT4=
EXTT5=
PLAYORDER=
